HIERARCHY
ROOT Hips
{
	OFFSET 53.202301 -49.721016 85.987190
	CHANNELS 6 Xposition Yposition Zposition Xrotation Yrotation Zrotation
	JOINT spine
	{
		OFFSET 0.000000 -0.367607 6.392601
		CHANNELS 3 Xrotation Yrotation Zrotation
		JOINT spine1
		{
			OFFSET 0.000000 0.000000 9.176109
			CHANNELS 3 Xrotation Yrotation Zrotation
			JOINT spine2
			{
				OFFSET 0.000000 -0.000004 8.792381
				CHANNELS 3 Xrotation Yrotation Zrotation
				JOINT Neck
				{
					OFFSET 0.000000 -1.076244 22.573700
					CHANNELS 3 Xrotation Yrotation Zrotation
					JOINT Head
					{
						OFFSET 0.000000 0.000000 6.820114
						CHANNELS 3 Xrotation Yrotation Zrotation
						End Site
						{
							OFFSET 0.000000 5.444267 16.508514
						}
					}
				}
				JOINT RightShoulder
				{
					OFFSET -3.702209 0.515507 9.495087
					CHANNELS 3 Xrotation Yrotation Zrotation
					JOINT RightArm
					{
						OFFSET 0.000000 -0.000004 12.453690
						CHANNELS 3 Xrotation Yrotation Zrotation
						JOINT RightArmRoll
						{
							OFFSET 0.000000 0.000000 6.286865
							CHANNELS 3 Xrotation Yrotation Zrotation
							JOINT RightForeArm
							{
								OFFSET 0.000000 -0.000004 18.311401
								CHANNELS 3 Xrotation Yrotation Zrotation
								JOINT RightForeArmRoll
								{
									OFFSET 0.000000 0.000000 7.054825
									CHANNELS 3 Xrotation Yrotation Zrotation
									JOINT RightHand
									{
										OFFSET 0.000000 -0.000004 14.157501
										CHANNELS 3 Xrotation Yrotation Zrotation
										End Site
										{
											OFFSET 0.000000 0.000000 0.100006
										}
									}
								}
							}
						}
					}
				}
				JOINT LeftShoulder
				{
					OFFSET 3.702209 0.515507 9.495087
					CHANNELS 3 Xrotation Yrotation Zrotation
					JOINT LeftArm
					{
						OFFSET 0.000000 -0.000004 12.453690
						CHANNELS 3 Xrotation Yrotation Zrotation
						JOINT LeftArmRoll
						{
							OFFSET 0.000000 0.000000 6.286865
							CHANNELS 3 Xrotation Yrotation Zrotation
							JOINT LeftForeArm
							{
								OFFSET 0.000000 -0.000004 18.311401
								CHANNELS 3 Xrotation Yrotation Zrotation
								JOINT LeftForeArmRoll
								{
									OFFSET 0.000000 0.000000 7.054825
									CHANNELS 3 Xrotation Yrotation Zrotation
									JOINT LeftHand
									{
										OFFSET 0.000000 -0.000004 14.157501
										CHANNELS 3 Xrotation Yrotation Zrotation
										End Site
										{
											OFFSET 0.000000 0.000000 0.100006
										}
									}
								}
							}
						}
					}
				}
			}
		}
	}
	JOINT RightUpLeg
	{
		OFFSET -5.666161 0.871609 -1.039032
		CHANNELS 3 Xrotation Yrotation Zrotation
		JOINT RightUpLegRoll
		{
			OFFSET 0.000000 0.000000 16.600502
			CHANNELS 3 Xrotation Yrotation Zrotation
			JOINT RightLeg
			{
				OFFSET 0.000000 0.000004 -20.557198
				CHANNELS 3 Xrotation Yrotation Zrotation
				JOINT RightLegRoll
				{
					OFFSET 0.000000 -0.000004 20.624397
					CHANNELS 3 Xrotation Yrotation Zrotation
					JOINT RightFoot
					{
						OFFSET 0.000000 -0.000004 17.166405
						CHANNELS 3 Xrotation Yrotation Zrotation
						JOINT RightToeBase
						{
							OFFSET 0.000000 -0.000004 14.350197
							CHANNELS 3 Xrotation Yrotation Zrotation
							End Site
							{
								OFFSET 0.006081 0.801060 6.949707
							}
						}
					}
				}
			}
		}
	}
	JOINT LeftUpLeg
	{
		OFFSET 5.666161 0.871609 -1.039032
		CHANNELS 3 Xrotation Yrotation Zrotation
		JOINT LeftUpLegRoll
		{
			OFFSET 0.000000 0.000000 16.600601
			CHANNELS 3 Xrotation Yrotation Zrotation
			JOINT LeftLeg
			{
				OFFSET 0.000000 -0.000004 20.557098
				CHANNELS 3 Xrotation Yrotation Zrotation
				JOINT LeftLegRoll
				{
					OFFSET 0.000000 -0.000004 20.815086
					CHANNELS 3 Xrotation Yrotation Zrotation
					JOINT LeftFoot
					{
						OFFSET 0.000000 -0.000004 16.975708
						CHANNELS 3 Xrotation Yrotation Zrotation
						JOINT LeftToeBase
						{
							OFFSET 0.000000 0.000000 14.350204
							CHANNELS 3 Xrotation Yrotation Zrotation
							End Site
							{
								OFFSET -0.027260 0.801056 6.949707
							}
						}
					}
				}
			}
		}
	}
}
MOTION
Frames: 7
Frame Time: 0.041667
51.892395 -9.276432 57.481491 -11.172667 0.750229 -0.662346 -1.049010 -0.096602 -0.994902 1.894448 -0.178117 -1.994749 3.539120 -0.201988 -1.992398 19.644247 7.854287 3.430204 -0.076467 -4.547867 3.540024 33.680821 -72.633782 34.677437 101.883439 -72.897871 83.708312 -0.000000 0.000009 -0.000006 55.870859 -12.111322 6.229578 -0.000009 -0.000008 -3.000002 -4.999601 -7.998726 -0.000036 -28.989327 70.787596 33.531605 104.483665 70.045646 -82.928510 -0.000002 -0.000007 -0.000001 55.594745 16.177491 -5.631421 0.000007 -0.000004 2.999990 -4.999643 7.998809 0.000053 -65.933845 -175.029130 3.083619 -179.999991 0.000005 -0.981002 112.043612 -1.631538 -3.308207 -0.000004 -0.000003 1.049910 66.733339 6.905889 2.244315 25.456960 -7.355615 0.000000 -67.667791 168.586800 -0.338649 -0.000004 -0.000003 -1.094940 -74.420491 -1.654043 0.647111 -0.000003 -0.000002 -1.423850 64.431695 -7.138865 -1.846725 25.458675 7.355617 -0.002608 
51.892597 -9.276535 57.480095 -11.171870 0.749954 -0.662727 -1.049841 -0.096473 -0.994800 1.893438 -0.178309 -1.994225 3.538110 -0.202175 -1.991879 19.659448 7.863285 3.429971 -0.087255 -4.555746 3.540716 33.680216 -72.631098 34.677485 101.888691 -72.900904 83.716392 -0.000004 0.000009 -0.000007 55.870425 -12.110962 6.229139 -0.000009 -0.000007 -3.000000 -4.999603 -7.998729 -0.000040 -28.992401 70.788408 33.534965 104.479935 70.047449 -82.923025 -0.000004 -0.000004 -0.000003 55.597228 16.177776 -5.631821 0.000010 -0.000001 2.999988 -4.999642 7.998809 0.000056 -65.935566 -175.030318 3.087097 -179.999991 0.000005 -0.981001 112.035320 -1.632460 -3.308137 -0.000004 -0.000003 1.049910 66.735238 6.911538 2.230165 25.456960 -7.355616 0.000001 -67.672879 168.584040 -0.338872 -0.000004 -0.000003 -1.094940 -74.426044 -1.654247 0.647117 -0.000003 -0.000002 -1.423850 64.432624 -7.138857 -1.846761 25.458675 7.355619 -0.002608 
51.891098 -9.270187 57.488487 -11.171171 0.749786 -0.663272 -1.050651 -0.096388 -0.994742 1.892500 -0.178602 -1.993778 3.537172 -0.202462 -1.991425 19.674722 7.873785 3.429849 -0.098474 -4.565164 3.541589 33.681282 -72.627963 34.679452 101.893793 -72.904162 83.724595 -0.000003 0.000009 -0.000006 55.870070 -12.110513 6.228538 -0.000008 -0.000006 -3.000001 -4.999605 -7.998731 -0.000036 -28.997346 70.788996 33.540416 104.476254 70.048931 -82.917294 -0.000001 -0.000004 -0.000003 55.599755 16.178170 -5.632290 0.000009 0.000000 2.999987 -4.999641 7.998806 0.000053 -65.937021 -175.032285 3.092111 -179.999991 0.000005 -0.981001 112.026639 -1.633357 -3.309087 -0.000005 -0.000003 1.049910 66.737348 6.917514 2.215065 25.456962 -7.355614 0.000001 -67.677872 168.581254 -0.339899 -0.000005 -0.000004 -1.094930 -74.431802 -1.654511 0.647098 -0.000003 -0.000002 -1.423849 64.433669 -7.138862 -1.846696 25.458675 7.355619 -0.002608 
51.890594 -9.278782 57.475494 -11.170566 0.749694 -0.663930 -1.051440 -0.096333 -0.994715 1.891609 -0.178964 -1.993390 3.536272 -0.202819 -1.991035 19.689747 7.885354 3.429841 -0.110001 -4.575653 3.542592 33.683136 -72.624343 34.682362 101.898677 -72.907529 83.732867 0.000001 0.000009 -0.000006 55.869711 -12.110069 6.228034 -0.000008 -0.000007 -3.000000 -4.999602 -7.998729 -0.000041 -29.003732 70.789563 33.547475 104.472524 70.050325 -82.911243 -0.000000 -0.000005 -0.000003 55.602285 16.178563 -5.632756 0.000010 -0.000002 2.999987 -4.999640 7.998805 0.000053 -65.938448 -175.033829 3.095908 -179.999991 0.000006 -0.981002 112.017623 -1.634606 -3.308978 -0.000004 -0.000003 1.049910 66.739431 6.923790 2.199429 25.456960 -7.355614 0.000000 -67.683056 168.578085 -0.340397 -0.000006 -0.000003 -1.094930 -74.437867 -1.654800 0.647057 -0.000003 -0.000002 -1.423850 64.434714 -7.138870 -1.846727 25.458673 7.355618 -0.002607 
51.891197 -9.298622 57.459885 -11.169967 0.749646 -0.664657 -1.052220 -0.096297 -0.994707 1.890739 -0.179366 -1.993019 3.535411 -0.203218 -1.990665 19.704908 7.897534 3.429869 -0.121703 -4.586770 3.543664 33.685745 -72.620579 34.686112 101.903923 -72.910978 83.741609 -0.000001 0.000011 -0.000009 55.869438 -12.109536 6.227369 -0.000008 -0.000007 -3.000001 -4.999602 -7.998730 -0.000042 -29.010720 70.789918 33.555196 104.468932 70.051588 -82.905328 -0.000004 -0.000004 -0.000003 55.604833 16.179016 -5.633313 0.000010 -0.000003 2.999989 -4.999644 7.998807 0.000054 -65.939828 -175.036206 3.101338 -179.999991 0.000005 -0.981001 112.008313 -1.635832 -3.309875 -0.000005 -0.000003 1.049910 66.741562 6.930225 2.183324 25.456962 -7.355618 0.000001 -67.688145 168.574874 -0.341314 -0.000005 -0.000003 -1.094930 -74.443946 -1.655125 0.646993 -0.000003 -0.000002 -1.423850 64.435854 -7.138852 -1.846749 25.458680 7.355619 -0.002609 
51.889896 -9.294197 57.466103 -11.169368 0.749609 -0.665400 -1.052990 -0.096266 -0.994703 1.889889 -0.179780 -1.992658 3.534562 -0.203627 -1.990312 19.719972 7.909880 3.429916 -0.133454 -4.598048 3.544758 33.688402 -72.616679 34.689926 101.908881 -72.914441 83.750052 -0.000001 0.000009 -0.000006 55.869049 -12.108979 6.226596 -0.000009 -0.000007 -3.000001 -4.999605 -7.998728 -0.000042 -29.018021 70.790328 33.563276 104.465107 70.052886 -82.899167 -0.000004 -0.000004 -0.000001 55.607387 16.179467 -5.633869 0.000008 -0.000002 2.999992 -4.999642 7.998806 0.000054 -65.941187 -175.038173 3.105762 -179.999991 0.000006 -0.981001 111.999113 -1.636690 -3.309857 -0.000004 -0.000003 1.049911 66.743809 6.936674 2.167014 25.456962 -7.355615 0.000002 -67.693336 168.571719 -0.342197 -0.000004 -0.000004 -1.094930 -74.450107 -1.655446 0.646936 -0.000003 -0.000002 -1.423851 64.436893 -7.138860 -1.846784 25.458673 7.355621 -0.002609 
51.892296 -9.294533 57.466995 -11.168765 0.749552 -0.666115 -1.053780 -0.096226 -0.994691 1.889019 -0.180175 -1.992287 3.533691 -0.204018 -1.989940 19.735026 7.921948 3.429937 -0.145123 -4.609056 3.545806 33.690847 -72.612936 34.693516 101.914134 -72.917897 83.758794 -0.000004 0.000007 -0.000007 55.868786 -12.108501 6.226115 -0.000007 -0.000009 -3.000002 -4.999603 -7.998725 -0.000039 -29.025015 70.790799 33.571008 104.461535 70.054149 -82.893184 -0.000003 -0.000005 -0.000003 55.609908 16.179863 -5.634336 0.000009 -0.000003 2.999990 -4.999640 7.998813 0.000052 -65.942649 -175.040140 3.110376 -179.999991 0.000005 -0.981002 111.989899 -1.637921 -3.310751 -0.000004 -0.000003 1.049910 66.745934 6.943067 2.151000 25.456959 -7.355615 0.000002 -67.698622 168.568126 -0.342058 -0.000005 -0.000003 -1.094930 -74.456275 -1.655755 0.646877 -0.000003 -0.000002 -1.423850 64.438047 -7.138885 -1.846713 25.458676 7.355620 -0.002609 
